<?xml version="1.0" encoding="UTF-8"?>
<!DOCTYPE svg PUBLIC "-//W3C//DTD SVG 1.1//EN" "http://www.w3.org/Graphics/SVG/1.1/DTD/svg11.dtd">
<!-- Creator: CorelDRAW X7 -->
<svg xmlns="http://www.w3.org/2000/svg" xml:space="preserve" width="8.5in" height="11in" version="1.1" style="shape-rendering:geometricPrecision; text-rendering:geometricPrecision; image-rendering:optimizeQuality; fill-rule:evenodd; clip-rule:evenodd"
viewBox="0 0 8500 11000"
 xmlns:xlink="http://www.w3.org/1999/xlink">
 <defs>
  <style type="text/css">
   <![CDATA[
    .str4 {stroke:#CBCDE7;stroke-width:18.5236}
    .str5 {stroke:#CBCDE7;stroke-width:16.5748}
    .str0 {stroke:#C74643;stroke-width:27.7795}
    .str1 {stroke:#EE655E;stroke-width:13.8898}
    .str3 {stroke:#CBCDE7;stroke-width:13.8898}
    .str2 {stroke:#5A8FB8;stroke-width:13.8898;stroke-linecap:round}
    .fil19 {fill:none}
    .fil8 {fill:none;fill-rule:nonzero}
    .fil18 {fill:#FEFEFE}
    .fil17 {fill:#FBB04E}
    .fil23 {fill:#EE655E}
    .fil21 {fill:#F39C39}
    .fil24 {fill:#F1F4FA}
    .fil22 {fill:#C7753A}
    .fil35 {fill:#CBCDE7}
    .fil34 {fill:#9098CB}
    .fil20 {fill:#50C0B1}
    .fil36 {fill:#2E3F5B}
    .fil0 {fill:#FEFEFE;fill-rule:nonzero}
    .fil16 {fill:#FBB04E;fill-rule:nonzero}
    .fil5 {fill:#F8B3B0;fill-rule:nonzero}
    .fil10 {fill:#F8B3AF;fill-rule:nonzero}
    .fil9 {fill:#F9A65E;fill-rule:nonzero}
    .fil15 {fill:#F79233;fill-rule:nonzero}
    .fil11 {fill:#F37E78;fill-rule:nonzero}
    .fil30 {fill:#F9F8F8;fill-rule:nonzero}
    .fil7 {fill:#EE655E;fill-rule:nonzero}
    .fil31 {fill:#F1A094;fill-rule:nonzero}
    .fil3 {fill:#F2EEF6;fill-rule:nonzero}
    .fil1 {fill:#ECF4FB;fill-rule:nonzero}
    .fil28 {fill:#E18D86;fill-rule:nonzero}
    .fil13 {fill:#DA5C73;fill-rule:nonzero}
    .fil12 {fill:#AB4258;fill-rule:nonzero}
    .fil2 {fill:#9098CB;fill-rule:nonzero}
    .fil4 {fill:#50C0B1;fill-rule:nonzero}
    .fil14 {fill:#5A8FB8;fill-rule:nonzero}
    .fil33 {fill:#4E4E63;fill-rule:nonzero}
    .fil27 {fill:#414050;fill-rule:nonzero}
    .fil32 {fill:#37354B;fill-rule:nonzero}
    .fil29 {fill:#40385C;fill-rule:nonzero}
    .fil26 {fill:#37597A;fill-rule:nonzero}
    .fil25 {fill:#2F4C75;fill-rule:nonzero}
    .fil6 {fill:#2E3F5B;fill-rule:nonzero}
   ]]>
  </style>
 </defs>
 <g id="Layer_x0020_1">
  <metadata id="CorelCorpID_0Corel-Layer"/>
  <g id="_7712569.eps">
   <polygon class="fil0" points="972,8722 7916,8722 7916,1778 972,1778 "/>
   <path class="fil1" d="M7916 7157c-88,-192 -232,-359 -419,-474 77,-95 139,-205 181,-328 195,-567 -108,-1185 -675,-1380 -312,-107 -639,-63 -903,92 22,-738 -434,-1435 -1169,-1687 -904,-310 -1889,171 -2199,1076 -99,288 -118,584 -68,864 -695,-70 -1372,343 -1609,1033 -276,804 153,1680 957,1956 322,111 656,108 958,14 40,146 110,282 206,399l3562 0c-8,-17 -16,-33 -25,-50 492,100 994,-153 1203,-613l0 -902z"/>
   <path class="fil1" d="M6771 4587c-55,161 -230,247 -391,192 -162,-56 -247,-231 -192,-392 55,-161 231,-247 392,-192 161,55 247,231 191,392z"/>
   <path class="fil1" d="M2223 4820c-71,206 -294,315 -500,245 -205,-71 -315,-295 -244,-500 70,-205 294,-315 499,-244 206,70 315,294 245,499z"/>
   <path class="fil1" d="M1674 8678c-5,15 -11,30 -19,44l-566 0c-39,-75 -49,-165 -19,-251 57,-167 239,-256 406,-199 167,57 255,239 198,406z"/>
   <path class="fil1" d="M2570 8722c-4,-31 -1,-63 10,-95 38,-112 161,-172 273,-133 98,33 156,130 144,228l-427 0z"/>
   <path class="fil1" d="M7250 4365c-36,105 -151,161 -256,125 -105,-37 -161,-151 -125,-256 36,-105 151,-161 256,-125 105,36 161,150 125,256z"/>
   <path class="fil1" d="M7916 6913c-60,-52 -85,-137 -58,-216 12,-35 32,-64 58,-87l0 303z"/>
   <path class="fil1" d="M6745 3935c-23,66 -96,102 -162,79 -66,-23 -102,-95 -79,-162 23,-66 95,-101 162,-79 66,23 101,95 79,162z"/>
   <path class="fil2" d="M5585 8226c138,-232 298,-452 476,-655 26,86 72,166 132,233 26,-81 -82,-202 -45,-279 16,-32 568,-340 991,-413 -25,310 -86,608 -226,919 -55,-32 -149,-23 -204,-55 38,86 110,123 137,174 -215,240 -526,497 -627,534 -211,77 -440,25 -646,-44 -110,-37 -137,-44 -104,-159 26,-89 69,-176 116,-255z"/>
   <path class="fil3" d="M5733 8667c311,-506 714,-953 1186,-1315 13,-9 1,-31 -12,-21 -476,364 -882,813 -1196,1324 -8,14 13,26 22,12l0 0z"/>
   <path class="fil3" d="M5746 8169c59,72 93,155 99,248 0,6 5,13 12,12 159,-20 318,-25 478,-15 16,1 16,-24 0,-25 -145,-9 -286,2 -430,10 -33,1 -32,4 -39,-25 -8,-30 -12,-59 -23,-88 -18,-50 -46,-94 -80,-134 -10,-12 -27,5 -17,17l0 0z"/>
   <path class="fil3" d="M5999 7859c49,84 80,173 91,270 1,6 5,12 13,12 130,-2 259,3 389,17 15,2 15,-22 0,-24 -65,-7 -130,-13 -195,-16 -32,-1 -64,-2 -97,-2 -20,0 -64,8 -80,-4 -23,-17 -27,-100 -37,-130 -16,-47 -37,-92 -63,-136 -8,-14 -29,-1 -21,13l0 0z"/>
   <path class="fil3" d="M6325 7561c32,73 52,148 60,227 1,8 8,15 16,12 145,-42 292,-75 441,-99 16,-2 9,-26 -6,-24 -149,24 -297,57 -442,99 6,4 11,8 16,12 -9,-84 -30,-163 -64,-240 -7,-14 -28,-2 -21,13l0 0z"/>
   <path class="fil4" d="M5649 6742c55,-131 118,-262 219,-362 102,-99 249,-162 387,-129 135,33 259,162 293,297 34,135 -14,273 -71,400 -60,135 -152,253 -243,370 -267,344 -489,585 -837,846 -358,270 -626,131 -431,-2 424,-379 469,-916 683,-1420z"/>
   <path class="fil3" d="M5003 8353c210,-166 386,-380 548,-592 206,-267 394,-550 551,-849 75,-143 143,-291 193,-445 4,-12 -15,-19 -19,-6 -95,293 -251,567 -417,826 -171,269 -362,528 -575,766 -91,101 -187,200 -295,285 -10,8 4,23 14,15l0 0z"/>
   <path class="fil3" d="M5986 6431c30,151 54,306 120,447 2,4 7,6 11,5 120,-25 243,-25 361,-63 12,-4 8,-23 -5,-19 -60,19 -123,29 -185,38 -49,7 -106,23 -155,20 -18,0 -6,5 -16,-6 -9,-10 -16,-37 -20,-49 -17,-43 -29,-87 -40,-132 -21,-81 -35,-163 -52,-246 -2,-12 -22,-8 -19,5l0 0z"/>
   <path class="fil3" d="M5719 6788c78,115 128,249 190,373 4,9 10,27 18,32 22,14 83,-9 106,-14 106,-21 207,-54 303,-103 12,-6 2,-24 -9,-18 -90,45 -184,77 -282,98 -23,5 -94,27 -108,15 -12,-10 -20,-41 -27,-55 -54,-112 -102,-233 -173,-337 -8,-11 -26,-1 -18,9l0 0z"/>
   <path class="fil2" d="M4238 8421c-146,-67 -287,-112 -434,-179 -194,-89 -1400,-580 -1442,-1536 -8,-170 60,-382 217,-445 465,-188 546,421 589,549 99,293 293,547 519,758 226,211 485,383 741,557 56,37 117,85 120,153 1,24 -7,49 -14,72 -43,135 -194,118 -296,71z"/>
   <path class="fil3" d="M2618 6414c11,186 55,351 143,516 71,134 153,262 246,382 214,280 480,518 776,708 191,122 394,224 604,309 15,6 24,-17 9,-23 -651,-262 -1231,-709 -1579,-1325 -41,-73 -83,-147 -112,-225 -40,-110 -56,-229 -62,-345 -1,-16 -26,-13 -25,3l0 0z"/>
   <path class="fil3" d="M2430 6678c96,73 193,139 304,187 7,4 15,-2 17,-9 20,-123 62,-247 129,-352 9,-13 -11,-28 -20,-15 -69,109 -112,236 -134,363 6,-3 12,-6 17,-9 -109,-48 -204,-113 -298,-184 -13,-10 -28,10 -15,19l0 0z"/>
   <path class="fil3" d="M2547 7101c81,26 162,55 242,83 38,12 76,25 115,36 14,5 35,14 51,10 5,-1 10,-4 10,-10 14,-131 29,-263 58,-391 4,-16 -21,-19 -24,-4 -20,86 -32,174 -43,261 -4,34 -8,68 -12,102 -1,8 -2,16 -3,24 0,2 13,0 1,-7 -21,-11 -52,-14 -74,-22 -37,-11 -73,-24 -110,-36 -67,-23 -134,-47 -201,-69 -15,-5 -25,18 -10,23l0 0z"/>
   <path class="fil3" d="M2772 7475c144,40 292,75 440,90 7,1 13,-3 14,-10 17,-126 14,-252 5,-379 -1,-15 -26,-12 -25,4 9,124 12,248 -4,371 4,-3 9,-7 14,-10 -147,-15 -292,-49 -434,-89 -15,-4 -25,18 -10,23l0 0z"/>
   <path class="fil4" d="M3084 8547c-179,-14 -562,-58 -495,-191 36,-42 87,-70 142,-77 18,-44 -49,-69 -96,-71 -125,-7 -602,-14 -522,-173 25,-57 185,-89 176,-94 -162,-77 -255,-127 -401,-251 -93,-79 -205,-257 -105,-324 71,-23 145,19 203,66 57,46 155,132 247,178 -19,-51 -129,-321 40,-303 106,12 231,276 341,355 15,10 37,20 49,7 8,-8 8,-21 9,-32 10,-66 108,-81 162,-41 54,40 76,108 103,170 27,61 71,125 137,133 -2,-39 -4,-80 13,-116 17,-35 61,-61 97,-45 17,8 29,24 40,39 183,250 492,544 685,772 -27,-11 -685,9 -825,-2z"/>
   <path class="fil3" d="M1913 7571c608,429 1303,713 1991,989 14,6 26,-16 11,-22 -687,-275 -1382,-559 -1991,-989 -13,-9 -24,13 -11,22l0 0z"/>
   <path class="fil3" d="M2259 8077c132,-8 266,-32 393,-69 7,-3 12,-12 7,-19 -103,-132 -215,-271 -287,-424 -6,-14 -27,-1 -20,13 71,153 183,292 286,424 2,-6 5,-12 7,-18 -125,37 -256,60 -387,68 -16,1 -15,26 1,25l0 0z"/>
   <path class="fil3" d="M2744 8399c83,-16 166,-28 249,-48 71,-18 153,-38 208,-90 5,-5 4,-14 0,-18 -150,-146 -257,-332 -391,-491 -10,-12 -27,6 -17,18 135,159 241,345 391,491 0,-6 -1,-12 -1,-17 -58,55 -153,73 -229,90 -72,17 -145,28 -217,41 -16,3 -9,26 7,24l0 0z"/>
   <path class="fil5" d="M2636 6279c0,0 2,-58 -60,-113 -61,-54 -212,-358 -172,-408 41,-51 83,6 83,6 0,0 -71,-124 -28,-149 42,-25 57,4 57,4 0,0 -27,-59 10,-80 36,-22 81,38 81,38 0,0 14,-41 75,-7 61,33 172,288 172,288 0,0 -18,-130 56,-159 74,-29 70,269 64,322 -6,53 -46,154 -39,206l-299 52z"/>
   <path class="fil6" d="M3602 8605c0,0 -6,49 -15,117l2038 0c-8,-69 -15,-117 -15,-117l-2008 0z"/>
   <path class="fil6" d="M5136 5697c170,-242 206,-533 84,-753 -68,-123 -198,-208 -267,-246 -34,-41 -121,-146 -313,-166 -258,-28 -433,179 -479,229 -210,232 -249,585 -102,946 -450,550 -616,1127 -404,1403 138,179 405,190 925,210 599,23 1002,38 1156,-184 193,-279 -40,-883 -600,-1439z"/>
   <path class="fil7" d="M5610 8605l-2008 0 -159 -1582c0,-608 493,-1101 1101,-1101l81 0c608,0 1101,493 1101,1101l-116 1582z"/>
   <path class="fil7" d="M5233 6105c558,209 1178,1498 964,1817 -45,67 -327,269 -568,307 -149,-635 -247,-1489 -396,-2124z"/>
   <path class="fil7" d="M4067 6030c0,0 -360,118 -533,424 -135,237 -349,575 -349,575l-158 -813c-4,-22 -26,-36 -48,-31l-399 94c-18,4 -31,21 -30,40 14,214 101,1409 372,1556 297,161 943,-727 943,-727l202 -1118z"/>
   <path class="fil8 str0" d="M3185 7029c0,0 76,78 72,234"/>
   <path class="fil8 str0" d="M5634 7471c0,0 219,-79 321,62"/>
   <path class="fil9" d="M4067 6030c0,0 298,421 330,2575l557 0c0,0 -181,-1927 235,-2530 0,0 -429,-345 -1122,-45z"/>
   <path class="fil0" d="M4298 5949c0,0 -86,85 -37,175 49,90 142,47 142,47 0,0 -54,139 111,172 165,34 169,-125 169,-125 0,0 75,124 180,51 106,-72 6,-202 6,-202 0,0 97,-18 103,-102 0,0 -279,-114 -674,-16z"/>
   <path class="fil10" d="M4803 5590l0 427c0,110 -90,201 -201,201 -110,0 -199,-91 -199,-201l0 -427 400 0z"/>
   <path class="fil11" d="M4803 5590l0 377c-39,11 -151,36 -272,-15 -60,-25 -102,-60 -128,-87 0,-91 0,-183 0,-275l400 0z"/>
   <path class="fil10" d="M5176 5286c-32,85 -110,134 -174,110 -64,-24 -90,-112 -58,-197 32,-85 110,-135 174,-111 64,24 90,113 58,198z"/>
   <path class="fil10" d="M4072 5294c38,102 131,161 207,132 77,-29 107,-134 69,-236 -38,-101 -131,-160 -207,-132 -76,29 -107,134 -69,236z"/>
   <path class="fil5" d="M4999 5181c65,177 -130,549 -390,549 -220,0 -399,-237 -399,-530 0,-319 261,-504 347,-521 49,-10 92,-8 116,84 83,314 271,267 326,418z"/>
   <path class="fil8 str1" d="M4101 5156c0,0 9,145 297,291"/>
   <path class="fil12" d="M4444 5443c0,22 -18,40 -41,40 -22,0 -40,-18 -40,-40 0,-23 18,-41 40,-41 23,0 41,18 41,41z"/>
   <path class="fil7" d="M4232 5013c0,0 -40,253 6,435 0,0 -215,-2 -222,-229 -7,-202 216,-206 216,-206z"/>
   <path class="fil7" d="M4974 5013c0,0 40,253 -6,435 0,0 215,-2 223,-229 6,-202 -217,-206 -217,-206z"/>
   <path class="fil7" d="M5105 5051c0,0 -79,-523 -502,-523 -416,0 -502,523 -502,523l87 -27c0,0 86,-451 415,-465 337,-14 427,478 427,478l75 14z"/>
   <path class="fil12" d="M5191 5219c-2,63 -20,108 -45,141 -66,-132 -32,-244 -13,-288 34,30 60,77 58,147z"/>
   <path class="fil12" d="M4016 5219c2,63 20,108 45,141 65,-132 31,-244 12,-288 -34,30 -60,77 -57,147z"/>
   <path class="fil6" d="M4426 5071c-14,0 -27,13 -34,32 -9,-3 -25,-10 -38,-21 0,0 3,25 34,41 0,4 -1,8 -1,12 0,35 18,63 39,63 22,0 40,-28 40,-63 0,-35 -18,-64 -40,-64z"/>
   <path class="fil6" d="M4477 5043c0,0 -83,-72 -131,5 0,0 7,-49 64,-55 57,-6 90,43 67,50z"/>
   <path class="fil6" d="M4767 5071c15,0 27,13 34,32 9,-3 26,-10 38,-21 0,0 -3,25 -34,41 1,4 1,8 1,12 0,35 -17,63 -39,63 -22,0 -39,-28 -39,-63 0,-35 17,-64 39,-64z"/>
   <path class="fil13" d="M4464 5445c0,0 19,101 131,104 112,2 146,-104 146,-104 0,0 -154,38 -277,0z"/>
   <path class="fil11" d="M4583 5234c0,0 -48,101 -21,108 28,6 63,2 56,-6 -6,-7 -50,2 -47,-26 3,-29 12,-76 12,-76z"/>
   <path class="fil6" d="M4716 5043c0,0 83,-72 131,5 0,0 -7,-49 -64,-55 -57,-6 -90,43 -67,50z"/>
   <path class="fil11" d="M2487 5764l86 167c0,0 0,-4 7,-7 7,-3 -133,-263 -133,-263 0,0 10,45 40,103z"/>
   <path class="fil11" d="M2516 5619c0,0 131,242 134,264 0,0 6,-6 14,-7 8,-1 -149,-259 -157,-303 0,0 0,25 9,46z"/>
   <path class="fil11" d="M2607 5577c0,0 116,220 130,257l8 -4 -131 -264 -7 11z"/>
   <path class="fil6" d="M5745 8141c-5,93 -86,170 -179,170l-1992 0c-93,0 -174,-77 -179,-170l-69 -1238c-6,-94 66,-170 160,-170l2168 0c94,0 166,76 160,170l-69 1238z"/>
   <path class="fil14" d="M4730 7451c0,85 -72,154 -160,154 -88,0 -160,-69 -160,-154 -1,-85 71,-155 160,-155 89,0 161,70 160,155z"/>
   <polygon class="fil15" points="2218,8722 6774,8722 6774,8344 2218,8344 "/>
   <path class="fil16" d="M7554 8424l-6220 0c-44,0 -80,-35 -80,-80l0 0c0,-44 36,-80 80,-80l6220 0c44,0 80,36 80,80l0 0c0,45 -36,80 -80,80z"/>
   <line class="fil8 str2" x1="4988" y1="8059" x2="5478" y2= "8059" />
   <line class="fil8 str2" x1="3659" y1="8059" x2="4149" y2= "8059" />
   <path class="fil17" d="M1343 5635c0,-79 64,-143 143,-143l617 0c79,0 143,64 143,143l0 418c0,79 -64,143 -143,143l-50 0 38 153 -247 -153 -358 0c-79,0 -143,-64 -143,-143l0 -418z"/>
   <path class="fil18" d="M2019 5789c0,90 -73,164 -164,164 -90,0 -163,-74 -163,-164 0,-90 73,-164 163,-164 91,0 164,74 164,164zm-65 0c0,54 -45,98 -99,98 -54,0 -98,-44 -98,-98 0,-54 44,-98 98,-98 54,0 99,44 99,98z"/>
   <path class="fil18" d="M1719 5873c14,-15 37,-15 51,0 14,14 14,37 0,51l-125 125c-14,14 -37,14 -51,0 -14,-14 -14,-37 0,-51l125 -125z"/>
   <path class="fil19 str3" d="M1442 5442l705 0c80,0 145,65 145,146l0 483"/>
   <path class="fil19 str3" d="M1657 6245l-221 0c-80,0 -145,-66 -145,-146l0 -484"/>
   <path class="fil20" d="M7175 5255c0,-340 -288,-617 -644,-617 -355,0 -644,277 -644,617 0,183 86,357 234,474l-16 269 228 -157c64,20 131,30 198,30 356,0 644,-276 644,-616z"/>
   <polygon class="fil17" points="6194,5524 6905,5524 6905,5064 6194,5064 "/>
   <polygon class="fil21" points="6550,5313 6200,5524 6900,5524 "/>
   <polygon class="fil22" points="6550,5347 6905,5066 6905,5064 6194,5064 6194,5066 "/>
   <path class="fil23" d="M6881 4947c56,0 102,45 102,102 0,56 -46,102 -102,102 -56,0 -102,-46 -102,-102 0,-57 46,-102 102,-102z"/>
   <path class="fil24" d="M6914 5054l-10 0 0 -49 -27 0 -28 51 3 16 30 0 0 16 22 0 0 -16 9 0 1 -18zm-43 0l11 -21 1 0 0 21 -12 0z"/>
   <path class="fil19 str4" d="M7082 4816c104,119 166,272 166,439 0,379 -321,687 -717,687 -49,0 -97,-5 -144,-14"/>
   <path class="fil19 str4" d="M6531 4569c141,0 273,39 383,106"/>
   <path class="fil19 str4" d="M6005 5721c-118,-123 -190,-286 -190,-466 0,-263 154,-491 381,-606"/>
   <path class="fil7" d="M3180 3550c386,0 699,313 699,699 0,140 -41,271 -112,380l137 241 -260 -98c-124,110 -286,176 -464,176 -386,0 -700,-313 -700,-699 0,-386 314,-699 700,-699z"/>
   <path class="fil8 str5" d="M3180 3493c417,0 756,338 756,756 0,114 -25,222 -71,319"/>
   <path class="fil8 str5" d="M2716 3652c68,-53 146,-95 230,-122"/>
   <path class="fil8 str5" d="M3605 4874c-121,83 -268,131 -425,131 -418,0 -756,-338 -756,-756 0,-180 62,-344 167,-474"/>
   <path class="fil10" d="M3723 4614c15,-3 43,-45 38,-68 -5,-21 -34,-50 -47,-68 -35,-48 -91,-54 -134,-95 -15,-15 -31,-29 -51,-38 -19,-9 -43,-10 -61,0 -25,15 -33,48 -27,77 17,77 155,218 282,192z"/>
   <path class="fil25" d="M3560 4192c49,43 67,65 171,125 44,26 -25,100 -88,98 -26,-1 -45,54 -62,73 -15,17 -13,103 -33,94 -20,-9 -25,-23 -40,-39 -32,-37 -1,-89 -33,-125 -19,-22 -39,-45 -51,-72 -20,-44 -39,-163 0,-202 45,-46 102,20 136,48z"/>
   <path class="fil25" d="M2980 4231c-4,7 -7,15 -7,22 1,17 14,30 26,42 69,74 30,181 17,282 -14,100 -76,208 -13,287 5,7 -1,33 -10,59 60,17 122,25 187,25 152,0 292,-48 407,-130 -1,-4 -2,-7 -4,-10 -30,-74 -49,-159 -46,-207 3,-43 11,-52 19,-94 8,-42 8,-80 -18,-115 -9,-12 -33,-55 -41,-67 -35,-48 -26,-191 -34,-196 -11,-7 -78,-13 -91,-12 -89,1 -132,10 -220,26 -75,13 -135,12 -172,88z"/>
   <path class="fil26" d="M3100 4576c27,20 53,34 88,29 38,-5 69,-28 99,-50 4,-2 0,-9 -3,-6 -26,19 -53,39 -85,47 -38,9 -66,-5 -96,-26 -3,-3 -7,3 -3,6l0 0z"/>
   <path class="fil26" d="M3351 4555c33,13 67,33 103,25 26,-6 58,-23 72,-47 2,-4 -4,-7 -6,-3 -14,24 -51,43 -79,44 -31,2 -60,-15 -88,-26 -4,-1 -6,6 -2,7l0 0z"/>
   <path class="fil26" d="M3472 4298c10,54 41,103 58,156 1,4 8,2 6,-2 -16,-53 -47,-101 -57,-156 -1,-5 -8,-3 -7,2l0 0z"/>
   <path class="fil26" d="M3148 4691c67,77 167,121 269,118 5,0 5,-7 0,-7 -100,2 -198,-40 -264,-116 -3,-3 -8,2 -5,5l0 0z"/>
   <path class="fil26" d="M3196 4875c32,-14 73,-6 107,-2 36,5 72,11 108,19 4,1 6,-6 2,-7 -39,-8 -78,-15 -117,-20 -34,-3 -72,-11 -103,4 -5,2 -1,8 3,6l0 0z"/>
   <path class="fil26" d="M3168 4309c57,44 127,66 199,62 4,0 4,-7 0,-7 -71,4 -139,-18 -195,-61 -4,-3 -7,4 -4,6l0 0z"/>
   <path class="fil27" d="M3145 3989c-1,-2 -3,-3 -6,-4 -16,-9 -32,-18 -48,-27 -2,15 -13,113 -25,148 12,-23 25,-46 38,-70 -5,42 -1,55 -7,79 16,-36 31,-77 47,-113 2,-4 4,-9 1,-13z"/>
   <path class="fil10" d="M3119 4128c-13,9 -38,10 -71,28 37,19 74,39 111,59 21,11 43,23 67,27 23,4 47,3 68,-7 64,-31 83,-90 78,-118 -26,1 -55,2 -74,-15 -15,-13 -36,-123 -38,-158 -49,-3 -112,2 -157,-16 12,95 53,173 16,200z"/>
   <path class="fil28" d="M3151 4190c26,2 64,-1 84,18 3,3 8,-2 5,-5 -22,-21 -61,-18 -89,-20 -4,-1 -4,6 0,7l0 0z"/>
   <path class="fil28" d="M3263 4200c7,7 14,-2 19,-6 14,-11 29,-17 46,-20 5,-1 3,-8 -1,-7 -11,2 -22,5 -32,10 -2,2 -26,18 -26,18 -4,-3 -9,2 -6,5l0 0z"/>
   <path class="fil11" d="M3298 4102c0,0 -86,27 -164,-16 0,0 -9,-67 -17,-86l166 55c0,0 -1,18 15,47z"/>
   <path class="fil10" d="M2822 4775c21,79 98,100 109,102 27,3 80,-64 87,-97 11,-48 10,-120 14,-169 2,-20 3,-41 -7,-59 -12,-19 -36,-28 -58,-32 -39,-6 -80,-1 -112,21 -71,50 -53,160 -33,234z"/>
   <path class="fil25" d="M2836 4408c-2,29 2,59 -9,86 -6,18 -19,33 -29,50 -30,53 -29,93 -26,153 20,7 78,20 99,15 74,-16 114,-25 188,-41 5,-1 10,-2 13,-6 5,-5 5,-12 4,-19 -3,-31 -18,-61 -20,-93 -4,-46 16,-89 26,-134 11,-46 10,-96 -3,-142 -55,-206 -238,15 -243,131z"/>
   <path class="fil10" d="M3567 4432c-15,-65 -31,-107 -47,-213 -4,-24 -16,-82 -26,-104 -24,-58 -74,-87 -77,-149 17,12 34,23 51,35 1,-45 -20,-89 -54,-117 -8,-7 -37,-24 -40,-35 -4,-15 4,-25 19,-29 15,-3 42,26 57,30 17,6 42,17 57,27 48,33 58,75 67,132 32,185 179,306 209,492 10,63 -49,151 -126,104 -62,-38 -75,-108 -90,-173z"/>
   <path class="fil29" d="M3324 3834l-45 107c-3,7 0,14 7,17l211 89c7,3 15,0 18,-7l45 -107c3,-7 0,-15 -7,-18l-211 -89c-7,-3 -15,1 -18,8z"/>
   <polygon class="fil1" points="3541,3920 3492,4035 3298,3954 3347,3838 "/>
   <path class="fil30" d="M3311 3906c3,-8 7,-17 11,-26 1,-2 -3,-4 -4,-1 -4,8 -8,17 -11,25 -1,3 3,5 4,2l0 0z"/>
   <path class="fil30" d="M3532 3984c4,-7 -8,-12 -11,-5 -4,8 8,13 11,5l0 0z"/>
   <path class="fil30" d="M3420 3976c12,-5 23,-9 34,-14 3,-1 1,-5 -1,-4 -12,5 -23,9 -34,14 -3,1 -1,5 1,4l0 0z"/>
   <path class="fil30" d="M3374 3950c29,-12 58,-24 87,-36 2,-1 1,-5 -2,-4 -29,12 -58,24 -87,36 -2,1 -1,5 2,4l0 0z"/>
   <path class="fil30" d="M3372 3909c8,-3 16,-6 24,-10 3,-1 1,-5 -1,-4 -9,4 -17,7 -25,10 -2,1 -1,5 2,4l0 0z"/>
   <path class="fil10" d="M3397 4025c-10,-3 -27,-4 -37,-8 -5,-1 -1,-21 25,-21 11,0 21,5 32,8 16,3 65,28 70,44 7,22 -36,24 -51,14 -27,-18 -26,-32 -39,-37z"/>
   <path class="fil31" d="M3580 4492c2,20 11,38 26,51 4,3 9,-2 6,-5 -14,-12 -23,-28 -25,-46 -1,-4 -8,-4 -7,0l0 0z"/>
   <path class="fil10" d="M2876 4555c-13,56 -35,110 -38,168 -3,57 19,121 71,146 11,6 23,9 35,9 36,-2 61,-36 73,-69 36,-94 13,-199 -4,-298 -12,-72 -17,-191 -4,-203 24,-21 25,-65 42,-87 3,-4 7,-9 12,-9 12,-2 24,15 34,7 4,-37 -38,-61 -74,-74 -13,-5 -26,-10 -40,-7 -31,6 -43,46 -72,60 7,-4 -32,-61 -67,-38 33,32 24,54 36,82 11,25 12,51 13,78 4,78 2,158 -17,235z"/>
   <path class="fil31" d="M2837 4734c2,11 6,22 12,33 2,4 8,0 6,-4 -5,-10 -9,-20 -11,-31 -1,-5 -8,-3 -7,2l0 0z"/>
   <path class="fil31" d="M2983 4177c5,-11 17,-18 29,-16 5,1 7,-6 2,-7 -16,-3 -32,6 -38,21 -2,5 5,7 7,2l0 0z"/>
   <path class="fil31" d="M3011 4192c5,-9 14,-15 25,-17 4,-1 2,-8 -2,-7 -13,2 -23,10 -30,21 -2,4 4,7 7,3l0 0z"/>
   <path class="fil31" d="M3034 4206c6,-6 13,-9 22,-10 4,-1 2,-8 -2,-7 -10,1 -18,5 -25,12 -4,2 1,8 5,5l0 0z"/>
   <path class="fil32" d="M2984 3747c-9,-1 -18,-1 -26,-6 -11,-7 -16,-21 -17,-34 -3,-30 11,-59 32,-80 21,-22 44,-48 74,-49 57,0 55,50 55,68 -1,18 3,38 15,51 51,52 -116,51 -133,50z"/>
   <path class="fil10" d="M3067 3915c30,54 19,63 63,105 35,33 134,80 178,62 33,-14 49,-52 59,-87 27,-92 9,-166 -27,-249 -7,-16 -23,-53 -38,-61 -14,-8 -29,-12 -44,-15 -53,-11 -112,-12 -160,16 -78,45 -70,160 -31,229z"/>
   <path class="fil32" d="M3184 3803c12,16 21,34 27,54 39,-16 67,-20 93,-32 -1,-16 -14,-37 -20,-51 23,14 21,50 37,51 3,0 30,-8 59,-7 4,-36 -6,-87 -26,-114 -20,-27 -81,-80 -228,-41 -34,9 -54,35 -79,62 -34,36 -42,93 -29,141 12,44 48,92 63,110 4,3 28,-14 30,-20 6,-17 4,-55 8,-72 0,0 62,-21 69,-27 7,-5 2,-31 -4,-54z"/>
   <path class="fil10" d="M3129 3955l-5 -15c-7,-18 -17,-42 -36,-43 -57,-3 -33,63 -19,83 6,8 13,16 22,20 10,5 22,4 30,-3 11,-9 10,-27 8,-42z"/>
   <path class="fil11" d="M3282 3880c3,14 8,28 14,42 4,8 8,15 12,22 3,4 5,7 7,11 -2,5 -6,9 -11,12 -4,2 0,8 4,6 9,-5 19,-11 14,-22 -5,-11 -14,-21 -19,-33 -7,-13 -11,-26 -14,-40 -2,-5 -8,-3 -7,2l0 0z"/>
   <path class="fil11" d="M3295 3985c2,4 5,8 8,12 0,-2 1,-4 1,-5 -12,7 -26,9 -40,6 -4,-1 -6,3 -4,6 9,11 20,18 32,23 5,1 7,-6 2,-7 -11,-4 -21,-11 -29,-21 -1,2 -2,4 -3,6 16,3 32,1 46,-7 2,-1 2,-3 1,-5 -3,-4 -5,-8 -8,-12 -3,-4 -9,0 -6,4l0 0z"/>
   <path class="fil32" d="M3227 3907c0,7 -4,14 -8,14 -5,0 -9,-7 -9,-14 0,-8 4,-14 9,-14 4,0 8,6 8,14z"/>
   <path class="fil32" d="M3339 3879c0,7 -4,13 -9,13 -4,0 -8,-6 -8,-13 0,-8 4,-14 8,-14 5,0 9,6 9,14z"/>
   <path class="fil11" d="M3097 3916c-17,-9 -32,8 -30,25 2,20 18,49 42,47 4,0 4,-7 0,-7 -15,1 -23,-11 -29,-23 -3,-7 -6,-12 -6,-20 0,-9 7,-22 19,-16 4,2 8,-4 4,-6l0 0z"/>
   <path class="fil32" d="M3174 3889c15,-5 31,-11 47,-16 4,-2 2,-9 -2,-7 -16,5 -31,11 -47,16 -4,2 -2,9 2,7l0 0z"/>
   <path class="fil32" d="M3300 3853c12,-3 23,-7 33,-15 3,-2 0,-8 -4,-6 -9,7 -20,12 -31,14 -5,1 -3,8 2,7l0 0z"/>
   <path class="fil33" d="M3059 3858c-11,-27 -13,-55 -6,-83 1,-4 -6,-6 -7,-2 -7,30 -5,59 6,87 2,4 9,2 7,-2l0 0z"/>
   <path class="fil33" d="M3078 3767c-2,27 3,52 15,76 2,4 8,0 6,-4 -11,-23 -16,-47 -14,-72 1,-4 -7,-4 -7,0l0 0z"/>
   <path class="fil33" d="M3115 3751c2,32 8,62 20,91 2,4 9,2 7,-2 -12,-29 -18,-58 -20,-89 0,-5 -7,-5 -7,0l0 0z"/>
   <path class="fil33" d="M3170 3745c24,15 41,38 48,66 1,5 8,3 7,-2 -7,-30 -25,-55 -52,-71 -4,-2 -7,4 -3,7l0 0z"/>
   <path class="fil33" d="M3204 3724c21,16 38,37 48,61 2,4 8,1 7,-4 -12,-25 -29,-47 -52,-64 -4,-2 -7,4 -3,7l0 0z"/>
   <path class="fil33" d="M3246 3702c34,14 60,41 73,75 2,4 9,2 7,-2 -14,-37 -42,-65 -78,-80 -5,-2 -7,5 -2,7l0 0z"/>
   <path class="fil33" d="M3284 3693c28,15 49,38 60,68 2,4 8,2 7,-2 -12,-31 -34,-57 -63,-72 -4,-2 -8,4 -4,6l0 0z"/>
   <path class="fil33" d="M2976 3675c-5,23 12,45 35,48 5,0 5,-7 0,-8 -18,-1 -32,-20 -28,-38 1,-5 -6,-7 -7,-2l0 0z"/>
   <path class="fil33" d="M3017 3667c0,15 13,28 29,28 4,0 4,-7 0,-7 -12,0 -22,-10 -22,-21 0,-5 -7,-5 -7,0l0 0z"/>
   <path class="fil33" d="M3050 3651c4,5 8,10 13,15 3,3 8,-2 5,-5 -4,-5 -9,-10 -13,-15 -3,-3 -8,2 -5,5l0 0z"/>
   <path class="fil33" d="M3068 3614c2,4 5,8 7,11 3,4 9,0 6,-3 -2,-4 -5,-8 -7,-11 -3,-4 -9,0 -6,3l0 0z"/>
   <path class="fil34" d="M5715 3772c0,-64 -51,-115 -115,-115l-753 0c-63,0 -115,51 -115,115l0 335c0,64 52,115 115,115l-80 118 260 -118 573 0c64,0 115,-51 115,-115l0 -335z"/>
   <path class="fil18" d="M5445 3874c-32,0 -59,26 -59,59 0,32 27,59 59,59 33,0 59,-27 59,-59 0,-33 -26,-59 -59,-59z"/>
   <path class="fil18" d="M5219 3874c-33,0 -59,26 -59,59 0,32 26,59 59,59 33,0 59,-27 59,-59 0,-33 -26,-59 -59,-59z"/>
   <path class="fil18" d="M4993 3874c-33,0 -59,26 -59,59 0,32 26,59 59,59 33,0 59,-27 59,-59 0,-33 -26,-59 -59,-59z"/>
   <path class="fil19 str5" d="M5029 3605l-194 0c-85,0 -155,70 -155,155l0 366c0,32 10,62 27,87"/>
   <path class="fil19 str5" d="M5612 4281c86,0 155,-69 155,-155l0 -366c0,-85 -69,-155 -155,-155l-309 0"/>
   <line class="fil19 str5" x1="5029" y1="4281" x2="5341" y2= "4281" />
   <polygon class="fil34" points="3913,2576 3913,2815 3642,2815 3734,2695 3642,2576 "/>
   <polygon class="fil34" points="4974,2576 4974,2815 5245,2815 5154,2695 5245,2576 "/>
   <path class="fil35" d="M1562 2462l-92 -160 -92 160 184 0zm-92 -120l58 100 -115 0 57 -100z"/>
   <polygon class="fil35" points="1583,6843 1640,6787 1653,6800 1597,6857 1653,6913 1640,6927 1583,6871 1527,6927 1513,6913 1570,6857 1513,6800 1527,6787 "/>
   <path class="fil35" d="M7248 6350c-44,0 -79,36 -79,80 0,43 35,79 79,79 44,0 79,-36 79,-79 0,-44 -35,-80 -79,-80zm0 20c33,0 59,27 59,60 0,32 -26,59 -59,59 -33,0 -59,-27 -59,-59 0,-33 26,-60 59,-60z"/>
   <polygon class="fil35" points="6387,2039 6443,1982 6457,1996 6401,2053 6457,2109 6443,2123 6387,2066 6330,2123 6317,2109 6373,2053 6317,1996 6330,1982 "/>
   <path class="fil35" d="M6872 3347l-92 -161 -92 161 184 0zm-92 -121l58 101 -115 0 57 -101z"/>
   <path class="fil35" d="M2326 3291c-43,0 -79,35 -79,79 0,44 36,79 79,79 44,0 80,-35 80,-79 0,-44 -36,-79 -80,-79zm0 20c33,0 59,26 59,59 0,32 -26,59 -59,59 -32,0 -59,-27 -59,-59 0,-33 27,-59 59,-59z"/>
   <path class="fil36" d="M3015 2246c4,-9 13,-15 24,-15 8,0 22,4 42,11l10 -60c-18,-8 -36,-13 -56,-13 -33,0 -57,11 -71,32 -15,22 -22,53 -22,93 0,41 7,71 21,92 14,20 36,31 67,31 20,0 41,-4 61,-12l-10 -54c-19,5 -33,7 -43,7 -11,0 -18,-5 -22,-14 -5,-10 -7,-26 -7,-49 0,-23 2,-39 6,-49zm179 88l0 -161 -67 0 0 165c0,28 7,47 21,60 15,12 36,19 65,19 29,0 52,-7 67,-19 15,-13 22,-33 22,-60l0 -165 -66 0 0 161c0,8 -2,14 -4,18 -4,4 -9,6 -16,6 -8,0 -13,-2 -17,-6 -3,-4 -5,-10 -5,-18zm150 -89c0,15 4,27 9,37 6,10 13,18 22,24 8,5 16,10 24,14 8,4 16,8 21,12 6,4 9,9 9,14 0,9 -5,14 -16,14 -11,0 -30,-4 -58,-12l-4 57c23,8 46,12 71,12 23,0 42,-7 55,-20 13,-14 20,-33 20,-57 0,-14 -3,-25 -9,-36 -5,-10 -13,-18 -21,-24 -8,-5 -16,-10 -25,-14 -8,-4 -15,-8 -20,-11 -6,-3 -9,-7 -9,-11 0,-10 6,-15 18,-15 9,0 27,3 52,9l8 -62c-24,-4 -48,-7 -71,-7 -24,0 -42,7 -55,21 -14,14 -21,33 -21,55zm338 -72l-158 0 -4 58 48 0 0 182 66 0 0 -182 44 0 4 -58zm27 118c0,43 7,75 22,95 14,21 38,31 72,31 33,0 57,-11 72,-31 15,-21 23,-53 23,-96 0,-42 -8,-73 -22,-92 -15,-19 -39,-29 -72,-29 -34,0 -58,10 -73,29 -15,20 -22,50 -22,93zm122 0l0 12c0,24 -1,39 -5,46 -3,8 -10,12 -22,12 -11,0 -19,-4 -22,-12 -4,-8 -6,-24 -6,-49l0 -10c0,-23 1,-39 5,-47 3,-8 11,-13 22,-13 11,0 19,5 23,13 3,8 5,24 5,48zm336 -118l-86 0 -21 130 -3 0 -21 -130 -87 0 -8 240 60 0 0 -125 4 0 21 125 62 0 23 -125 3 0 0 125 61 0 -8 -240zm192 186l-67 0 0 -40 55 0 0 -51 -55 0 0 -36 63 0 4 -59 -133 0 0 240 129 0 4 -54zm188 -168c-12,-12 -31,-18 -57,-18l-89 0 0 240 65 0 0 -87 8 0 24 87 72 0 -32 -102c9,-8 16,-16 20,-26 4,-10 7,-22 7,-36 0,-26 -6,-46 -18,-58zm-71 95l-10 0 0 -54 10 0c7,0 11,2 14,6 3,4 4,11 4,21 0,10 -1,17 -4,21 -3,4 -8,6 -14,6zm224 -41c0,15 3,27 9,37 6,10 13,18 21,24 8,5 17,10 25,14 8,4 15,8 21,12 6,4 8,9 8,14 0,9 -5,14 -16,14 -11,0 -30,-4 -57,-12l-4 57c22,8 46,12 70,12 24,0 43,-7 56,-20 13,-14 19,-33 19,-57 0,-14 -2,-25 -8,-36 -6,-10 -13,-18 -21,-24 -8,-5 -17,-10 -25,-14 -8,-4 -15,-8 -21,-11 -6,-3 -9,-7 -9,-11 0,-10 6,-15 18,-15 10,0 27,3 53,9l8 -62c-25,-4 -49,-7 -72,-7 -23,0 -41,7 -55,21 -13,14 -20,33 -20,55zm328 114l-67 0 0 -40 55 0 0 -51 -55 0 0 -36 63 0 4 -59 -133 0 0 240 129 0 4 -54zm188 -168c-12,-12 -31,-18 -57,-18l-89 0 0 240 65 0 0 -87 8 0 24 87 72 0 -32 -102c9,-8 16,-16 20,-26 4,-10 7,-22 7,-36 0,-26 -6,-46 -18,-58zm-71 95l-10 0 0 -54 10 0c6,0 11,2 14,6 2,4 4,11 4,21 0,10 -2,17 -4,21 -3,4 -8,6 -14,6zm238 -113l-16 157 -6 0 -21 -157 -73 0 43 240 102 0 41 -240 -70 0zm180 0l-66 0 0 240 66 0 0 -240zm123 73c4,-9 12,-15 23,-15 8,0 22,4 42,11l11 -60c-18,-8 -36,-13 -56,-13 -33,0 -57,11 -72,32 -14,22 -22,53 -22,93 0,41 7,71 21,92 14,20 37,31 67,31 21,0 41,-4 62,-12l-10 -54c-19,5 -33,7 -44,7 -10,0 -18,-5 -22,-14 -4,-10 -7,-26 -7,-49 0,-23 3,-39 7,-49zm245 113l-68 0 0 -40 55 0 0 -51 -55 0 0 -36 64 0 4 -59 -134 0 0 240 130 0 4 -54z"/>
   <path class="fil34" d="M4219 2576l-7 126 -4 0 -18 -126 -64 0 -16 126 -4 0 -10 -126 -64 0 26 239 79 0 18 -106 3 0 21 106 79 0 22 -239 -61 0zm238 185l-68 0 0 -40 56 0 0 -51 -56 0 0 -35 64 0 4 -59 -133 0 0 239 129 0 4 -54zm175 0l-68 0 0 -40 56 0 0 -51 -56 0 0 -35 64 0 4 -59 -133 0 0 239 129 0 4 -54zm168 -62l47 -123 -71 0 -35 100 -3 0 0 -100 -64 0 0 239 64 0 0 -90 3 0 29 90 73 0 -43 -116z"/>
  </g>
 </g>
</svg>
