<svg width="256" height="256" viewBox="0 0 256 256" fill="none" xmlns="http://www.w3.org/2000/svg">
<g clip-path="url(#clip0_93_10)">
<path fill-rule="evenodd" clip-rule="evenodd" d="M179.243 20.8745L256.256 64.6612V65.5892L178.453 108.907L178.635 86.3252L169.877 86.0052C158.581 85.7065 152.693 86.0265 145.685 87.1785C134.336 89.0452 123.947 93.3332 112.117 101.6L89.0133 117.653C85.984 119.733 83.7333 121.237 81.76 122.507L76.2667 125.941L72.032 128.437L76.1387 130.891L81.792 134.496C86.8693 137.845 94.272 142.987 110.603 154.4C122.443 162.667 132.821 166.955 144.171 168.821L147.371 169.301C154.773 170.272 162.037 170.304 177.504 169.653L177.739 146.624L254.752 190.411V191.339L176.949 234.667L177.099 214.805L170.325 215.04C155.541 215.488 147.531 215.061 136.853 213.312C118.784 210.325 102.08 203.435 84.7893 191.349L61.7707 175.349C59.1229 173.524 56.4379 171.752 53.7173 170.037L48.736 167.051C46.0458 165.501 43.3435 163.972 40.6293 162.464C31.0187 157.12 6.00533 150.571 0 150.571V105.472L1.49333 105.515C7.50933 105.44 32.5333 98.8798 42.1227 93.5252L52.96 87.3385L57.632 84.4158C62.1973 81.4292 69.0667 76.6718 86.2827 64.6505C103.573 52.5652 120.267 45.6638 138.347 42.6878C150.635 40.6612 159.403 40.4158 179.029 41.2158L179.243 20.8745Z" fill="white"/>
</g>
<defs>
<clipPath id="clip0_93_10">
<rect width="256" height="256" fill="white"/>
</clipPath>
</defs>
</svg>
