<svg width="256" height="256" viewBox="0 0 256 256" fill="none" xmlns="http://www.w3.org/2000/svg">
<path d="M98.3103 81.5747C90.6118 72.3365 80.7711 67.6504 68.7881 67.6504C57.7424 67.6504 48.705 71.3323 41.609 78.6292C34.5129 85.993 30.8979 95.6329 30.8979 107.616C30.8979 119.13 34.2451 128.435 41.0065 135.598C47.7678 142.761 55.7341 146.376 65.0393 146.376C73.6081 146.376 80.7041 143.096 86.3943 136.469C85.4571 149.991 83.3819 158.895 80.1016 163.246C76.8214 167.53 72.8717 169.673 68.1856 169.673C64.5037 169.673 61.4913 168.602 59.2152 166.459C56.9391 164.317 55.5333 161.037 54.9977 156.552L33.1071 158.962C34.7137 168.735 38.3957 176.099 44.0859 180.986C49.7761 185.873 57.2738 188.35 66.512 188.35C79.3652 188.35 89.7415 183.597 97.7748 174.024C105.808 164.451 109.758 148.853 109.758 127.297C109.825 106.076 106.009 90.8129 98.3103 81.5747ZM79.9677 124.62C76.9553 128.034 73.3403 129.774 68.989 129.774C64.5037 129.774 60.6879 127.967 57.6755 124.419C54.663 120.871 53.1902 115.247 53.1902 107.616C53.1902 100.118 54.596 94.6957 57.3407 91.3485C60.0854 88.0682 63.5665 86.3946 67.784 86.3946C72.2023 86.3946 76.085 88.403 79.4322 92.4196C82.7794 96.4362 84.453 102.126 84.453 109.423C84.453 116.185 82.9802 121.205 79.9677 124.62ZM210.709 163.246C205.019 154.075 200.467 147.648 197.119 144.1C193.772 140.485 189.488 137.205 184.333 134.193C194.709 132.72 202.475 129.038 207.696 123.281C212.918 117.523 215.529 110.16 215.529 101.323C215.529 94.361 213.788 88.1352 210.374 82.7127C206.96 77.2903 202.341 73.5414 196.651 71.3992C190.961 69.257 181.722 68.1859 169.137 68.1859H118.929V186.275H142.761V136.937H147.581C153.07 136.937 157.087 137.406 159.564 138.276C162.108 139.146 164.451 140.82 166.727 143.163C169.003 145.573 173.153 151.33 179.312 160.501L196.584 186.208H225.102L210.709 163.246ZM160.367 118.126H142.761V88.1352H161.371C171.011 88.1352 176.835 88.2691 178.777 88.5368C182.659 89.2063 185.672 90.746 187.747 93.156C189.889 95.6329 190.961 98.7792 190.961 102.796C190.961 106.344 190.157 109.289 188.551 111.632C186.944 113.975 184.735 115.649 181.856 116.653C178.978 117.657 171.815 118.126 160.367 118.126Z" fill="white"/>
</svg>
