<svg width="256" height="256" viewBox="0 0 256 256" fill="none" xmlns="http://www.w3.org/2000/svg">
<path fill-rule="evenodd" clip-rule="evenodd" d="M98.1867 92.352V68.2453C98.1867 66.2187 98.9547 64.6933 100.725 63.68L149.184 35.776C155.787 31.968 163.648 30.1973 171.765 30.1973C202.208 30.1973 221.493 53.792 221.493 78.9013C221.493 80.6827 221.493 82.7093 221.237 84.736L170.997 55.3067C169.633 54.4382 168.049 53.9768 166.432 53.9768C164.815 53.9768 163.231 54.4382 161.867 55.3067L98.1867 92.352ZM211.349 186.219V128.64C211.349 125.088 209.824 122.56 206.773 120.779L143.093 83.7333L163.893 71.808C164.647 71.312 165.53 71.0477 166.432 71.0477C167.334 71.0477 168.217 71.312 168.971 71.808L217.429 99.7227C231.392 107.829 240.779 125.088 240.779 141.835C240.779 161.12 229.365 178.88 211.339 186.24L211.349 186.219ZM83.2213 135.499L62.4213 123.317C60.64 122.304 59.872 120.779 59.872 118.752V62.9227C59.872 35.776 80.672 15.2213 108.843 15.2213C119.509 15.2213 129.397 18.7733 137.771 25.12L87.7867 54.048C84.7467 55.8187 83.2213 58.3573 83.2213 61.9093V135.488V135.499ZM128 161.365L98.1867 144.619V109.099L128 92.352L157.813 109.099V144.619L128 161.365ZM147.157 238.485C136.491 238.485 126.603 234.944 118.229 228.597L168.213 199.669C171.253 197.899 172.779 195.36 172.779 191.808V118.229L193.835 130.411C195.616 131.424 196.373 132.949 196.373 134.976V190.795C196.373 217.941 175.317 238.485 147.157 238.485ZM87.0293 181.92L38.56 154.005C24.608 145.888 15.2213 128.64 15.2213 111.893C15.1884 102.378 17.9958 93.069 23.2842 85.1583C28.5726 77.2476 36.1013 71.095 44.9067 67.488V125.333C44.9067 128.885 46.432 131.424 49.472 133.205L112.907 169.995L92.1067 181.92C91.3534 182.417 90.4706 182.682 89.568 182.682C88.6654 182.682 87.7826 182.417 87.0293 181.92ZM84.2347 223.52C55.5627 223.52 34.5067 201.963 34.5067 175.317C34.5067 173.291 34.7627 171.264 35.008 169.237L84.992 198.144C88.0427 199.925 91.0827 199.925 94.1227 198.144L157.803 161.365V185.472C157.803 187.499 157.056 189.024 155.275 190.037L106.816 217.941C100.213 221.749 92.352 223.52 84.2347 223.52ZM147.157 253.707C161.777 253.708 175.948 248.659 187.273 239.415C198.599 230.171 206.384 217.299 209.312 202.976C237.728 195.616 256 168.96 256 141.824C256 124.064 248.395 106.816 234.688 94.3787C235.957 89.0453 236.715 83.7227 236.715 78.4C236.715 42.1227 207.285 14.9653 173.291 14.9653C166.443 14.9653 159.851 15.9787 153.237 18.272C141.397 6.61769 125.467 0.0593985 108.853 6.85243e-08C94.2325 -0.000679232 80.0604 5.04923 68.7345 14.2954C57.4085 23.5415 49.6243 36.4162 46.6987 50.7413C18.272 58.1013 0 84.7467 0 111.893C0 129.664 7.60533 146.912 21.312 159.339C20.0427 164.672 19.2853 170.005 19.2853 175.328C19.2853 211.605 48.7147 238.752 82.7093 238.752C89.5573 238.752 96.1493 237.739 102.763 235.456C114.604 247.115 130.54 253.674 147.157 253.728V253.707Z" fill="white"/>
</svg>
