<svg width="256" height="256" viewBox="0 0 256 256" fill="none" xmlns="http://www.w3.org/2000/svg">
<g clip-path="url(#clip0_93_2)">
<path d="M253.318 49.3214C250.602 47.9985 249.434 50.5222 247.846 51.8043C247.31 52.2249 246.848 52.7744 246.393 53.2561C242.422 57.5029 237.792 60.2843 231.75 59.9451C222.898 59.4635 215.349 62.2381 208.675 69.0153C207.257 60.6642 202.538 55.678 195.37 52.476C191.609 50.8139 187.814 49.1518 185.193 45.5359C183.354 42.9716 182.858 40.1087 181.928 37.2866C181.351 35.5838 180.76 33.8335 178.805 33.5418C176.68 33.2026 175.845 34.9936 175.017 36.4861C171.67 42.5849 170.387 49.3214 170.503 56.1393C170.795 71.4576 177.271 83.6552 190.115 92.3455C191.582 93.3359 191.955 94.3468 191.493 95.7985C190.618 98.7835 189.579 101.687 188.649 104.679C188.072 106.592 187.196 107.012 185.153 106.171C178.099 103.227 172.003 98.8717 166.626 93.5869C157.489 84.7542 149.227 74.992 138.922 67.3532C136.498 65.5623 134.088 63.9002 131.583 62.3263C121.068 52.1028 132.962 43.7042 135.711 42.7206C138.596 41.6894 136.709 38.1142 127.408 38.1549C118.115 38.1956 109.595 41.3095 98.7535 45.4545C97.165 46.0854 95.5018 46.5467 93.7842 46.9063C83.9407 45.0543 73.7238 44.6337 63.0384 45.8344C42.9304 48.0867 26.8685 57.5979 15.0563 73.8387C0.874763 93.3359 -2.46525 115.506 1.62151 138.653C5.91873 163.014 18.3487 183.21 37.4656 198.99C57.2749 215.339 80.0983 223.351 106.133 221.818C121.944 220.916 139.553 218.792 159.41 201.982C164.42 204.465 169.675 205.455 178.398 206.208C185.112 206.839 191.575 205.869 196.585 204.838C204.426 203.176 203.883 195.917 201.052 194.573C178.059 183.868 183.102 188.224 178.513 184.71C190.197 170.863 207.806 156.495 214.697 109.957C215.233 106.253 214.772 103.939 214.697 100.934C214.656 99.1227 215.063 98.4104 217.148 98.2001C222.904 97.5488 228.498 95.9681 233.63 93.1324C248.525 84.9916 254.526 71.6339 255.945 55.5966C256.155 53.1543 255.904 50.6104 253.324 49.3282L253.318 49.3214ZM123.525 193.583C101.238 176.06 90.4374 170.294 85.9773 170.545C81.8091 170.775 82.5558 175.551 83.4723 178.665C84.4295 181.738 85.6854 183.862 87.4436 186.555C88.652 188.346 89.487 191.012 86.2352 192.993C79.0596 197.457 66.5821 191.5 65.9915 191.202C51.4774 182.661 39.3393 171.365 30.7788 155.918C22.5238 141.048 17.7242 125.099 16.9367 108.078C16.7263 103.953 17.9346 102.501 22.0214 101.768C27.398 100.778 32.9579 100.568 38.3345 101.348C61.0697 104.672 80.431 114.855 96.649 130.946C105.916 140.139 112.921 151.102 120.145 161.807C127.816 173.19 136.084 184.024 146.6 192.905C150.307 196.018 153.273 198.393 156.104 200.143C147.557 201.093 133.281 201.303 123.525 193.576V193.583ZM134.204 124.848C134.204 123.016 135.663 121.564 137.51 121.564C137.917 121.564 138.297 121.646 138.637 121.774C139.092 121.944 139.513 122.195 139.838 122.575C140.429 123.145 140.762 123.986 140.762 124.848C140.762 126.679 139.302 128.131 137.469 128.131C135.636 128.131 134.204 126.679 134.204 124.848ZM167.373 141.889C165.248 142.751 163.124 143.51 161.08 143.592C157.91 143.741 154.448 142.452 152.56 140.878C149.641 138.436 147.564 137.072 146.675 132.778C146.308 130.946 146.518 128.131 146.844 126.51C147.605 123.016 146.763 120.784 144.305 118.749C142.296 117.087 139.757 116.646 136.96 116.646C135.915 116.646 134.957 116.184 134.245 115.805C133.077 115.214 132.12 113.763 133.036 111.978C133.328 111.408 134.754 109.997 135.086 109.746C138.874 107.582 143.253 108.295 147.306 109.916C151.067 111.449 153.898 114.271 157.978 118.247C162.16 123.063 162.906 124.413 165.282 128.009C167.156 130.851 168.873 133.755 170.041 137.079C170.747 139.141 169.831 140.844 167.366 141.896L167.373 141.889Z" fill="white"/>
</g>
<defs>
<clipPath id="clip0_93_2">
<rect width="256" height="256" fill="white"/>
</clipPath>
</defs>
</svg>
