<svg width="256" height="256" viewBox="0 0 256 256" fill="none" xmlns="http://www.w3.org/2000/svg">
<g clip-path="url(#clip0_96_8)">
<path d="M250.9 130.9C250.9 121.8 250.1 113.1 248.55 104.7H128V154.25H196.9C193.85 170.2 184.8 183.7 171.2 192.75V225H212.75C236.9 202.7 250.9 169.9 250.9 130.9Z" fill="#4285F4"/>
<path d="M128 256C162.55 256 191.55 244.6 212.7 225.05L171.15 192.8C159.75 200.5 145.2 205.15 128 205.15C94.7 205.15 66.45 182.7 56.3 152.45H13.75V185.5C34.8 227.25 77.95 256 128 256Z" fill="#34A853"/>
<path d="M56.3 152.3C53.75 144.6 52.25 136.45 52.25 128C52.25 119.55 53.75 111.35 56.3 103.7V70.6499H13.75C5 87.8499 0 107.3 0 128C0 148.7 5 168.15 13.75 185.35L46.9 159.5C46.9 159.55 56.3 152.3 56.3 152.3Z" fill="#FBBC05"/>
<path d="M128 50.95C146.85 50.95 163.6 57.45 177 70.05L213.65 33.4C191.4 12.7 162.55 0 128 0C77.95 0 34.8 28.75 13.75 70.65L56.35 103.7C66.45 73.45 94.7 50.95 128 50.95Z" fill="#EA4335"/>
</g>
<defs>
<clipPath id="clip0_96_8">
<rect width="256" height="256" fill="white"/>
</clipPath>
</defs>
</svg>
