<svg width="256" height="256" viewBox="0 0 256 256" fill="none" xmlns="http://www.w3.org/2000/svg">
<path d="M35.477 177C28.59 177 22.4733 175.782 17.1268 173.345C11.7804 170.909 7.61193 167.435 4.62153 162.923C1.63113 158.411 0.0906184 153.041 0 146.815H17.2628C17.2628 149.973 17.9877 152.816 19.4376 155.343C20.9781 157.779 23.0623 159.719 25.6903 161.163C28.4088 162.607 31.6711 163.329 35.477 163.329C38.7393 163.329 41.5485 162.832 43.9045 161.84C46.3512 160.757 48.2089 159.268 49.4775 157.373C50.8368 155.388 51.5165 153.087 51.5165 150.47C51.5165 147.492 50.7915 145.055 49.3416 143.16C47.9823 141.175 46.0794 139.506 43.6327 138.152C41.186 136.798 38.3768 135.625 35.2052 134.633C32.0335 133.55 28.6807 132.422 25.1466 131.249C17.6252 128.722 11.9616 125.518 8.15564 121.638C4.34967 117.668 2.44669 112.389 2.44669 105.801C2.44669 100.296 3.76066 95.5589 6.38859 91.5884C9.01651 87.6179 12.6866 84.5497 17.3987 82.384C22.2015 80.128 27.7292 79 33.9818 79C40.3251 79 45.8528 80.128 50.565 82.384C55.3677 84.64 59.1284 87.7983 61.8469 91.8591C64.6561 95.8296 66.106 100.612 66.1966 106.207H48.7979C48.7073 103.861 48.073 101.695 46.8949 99.7099C45.7169 97.6344 43.9951 95.965 41.7297 94.7017C39.5549 93.3481 36.8816 92.6713 33.71 92.6713C30.9914 92.581 28.5447 93.0322 26.3699 94.0249C24.2857 94.9273 22.6092 96.2808 21.3406 98.0856C20.1626 99.8002 19.5735 101.966 19.5735 104.583C19.5735 107.11 20.1172 109.23 21.2047 110.945C22.3827 112.569 24.0591 113.968 26.234 115.141C28.4088 116.224 30.9461 117.262 33.8459 118.254C36.7457 119.247 39.9173 120.33 43.3608 121.503C48.073 123.037 52.332 124.932 56.138 127.188C60.0346 129.354 63.1156 132.196 65.381 135.715C67.6465 139.235 68.7792 143.792 68.7792 149.387C68.7792 154.26 67.5106 158.817 64.9733 163.058C62.436 167.209 58.7206 170.593 53.8272 173.21C48.9338 175.737 42.8171 177 35.477 177Z" fill="#2F80ED"/>
<path d="M116.582 177C109.695 177 103.578 175.782 98.2319 173.345C92.8854 170.909 88.717 167.435 85.7266 162.923C82.7362 158.411 81.1957 153.041 81.1051 146.815H98.3678C98.3678 149.973 99.0928 152.816 100.543 155.343C102.083 157.779 104.167 159.719 106.795 161.163C109.514 162.607 112.776 163.329 116.582 163.329C119.844 163.329 122.654 162.832 125.01 161.84C127.456 160.757 129.314 159.268 130.583 157.373C131.942 155.388 132.622 153.087 132.622 150.47C132.622 147.492 131.897 145.055 130.447 143.16C129.087 141.175 127.184 139.506 124.738 138.152C122.291 136.798 119.482 135.625 116.31 134.633C113.139 133.55 109.786 132.422 106.252 131.249C98.7303 128.722 93.0667 125.518 89.2607 121.638C85.4547 117.668 83.5518 112.389 83.5518 105.801C83.5518 100.296 84.8657 95.5589 87.4937 91.5884C90.1216 87.6179 93.7916 84.5497 98.5038 82.384C103.307 80.128 108.834 79 115.087 79C121.43 79 126.958 80.128 131.67 82.384C136.473 84.64 140.233 87.7983 142.952 91.8591C145.761 95.8296 147.211 100.612 147.302 106.207H129.903C129.812 103.861 129.178 101.695 128 99.7099C126.822 97.6344 125.1 95.965 122.835 94.7017C120.66 93.3481 117.987 92.6713 114.815 92.6713C112.097 92.581 109.65 93.0322 107.475 94.0249C105.391 94.9273 103.714 96.2808 102.446 98.0856C101.268 99.8002 100.679 101.966 100.679 104.583C100.679 107.11 101.222 109.23 102.31 110.945C103.488 112.569 105.164 113.968 107.339 115.141C109.514 116.224 112.051 117.262 114.951 118.254C117.851 119.247 121.022 120.33 124.466 121.503C129.178 123.037 133.437 124.932 137.243 127.188C141.14 129.354 144.221 132.196 146.486 135.715C148.752 139.235 149.884 143.792 149.884 149.387C149.884 154.26 148.616 158.817 146.078 163.058C143.541 167.209 139.826 170.593 134.932 173.21C130.039 175.737 123.922 177 116.582 177Z" fill="#2F80ED"/>
<path d="M209.105 177C199.953 177 191.842 174.97 184.774 170.909C177.796 166.758 172.314 161.028 168.327 153.718C164.34 146.319 162.346 137.746 162.346 128C162.346 118.344 164.34 109.862 168.327 102.552C172.314 95.1529 177.796 89.3775 184.774 85.2265C191.842 81.0755 199.953 79 209.105 79C218.439 79 226.64 81.0755 233.708 85.2265C240.776 89.3775 246.259 95.1529 250.155 102.552C254.052 109.862 256 118.344 256 128C256 137.746 254.052 146.319 250.155 153.718C246.259 161.028 240.776 166.758 233.708 170.909C226.64 174.97 218.439 177 209.105 177ZM209.241 162.381C215.312 162.381 220.614 161.028 225.144 158.32C229.675 155.523 233.164 151.552 235.611 146.409C238.058 141.265 239.281 135.129 239.281 128C239.281 120.871 238.058 114.735 235.611 109.591C233.164 104.448 229.675 100.522 225.144 97.8149C220.614 95.0175 215.312 93.6188 209.241 93.6188C203.17 93.6188 197.868 95.0175 193.338 97.8149C188.807 100.522 185.272 104.448 182.735 109.591C180.288 114.735 179.065 120.871 179.065 128C179.065 135.129 180.288 141.265 182.735 146.409C185.272 151.552 188.807 155.523 193.338 158.32C197.868 161.028 203.17 162.381 209.241 162.381Z" fill="#2F80ED"/>
</svg>
