<svg width="512" height="512" viewBox="0 0 512 512" fill="none" xmlns="http://www.w3.org/2000/svg">
<path fill-rule="evenodd" clip-rule="evenodd" d="M255.942 110.35C219.026 110.35 182.195 122.937 152.201 148.104C134.148 163.253 120.196 181.684 110.506 201.868C109.161 201.74 107.852 201.448 106.472 201.448C82.3598 201.448 62.9455 220.862 62.9455 244.973V298.768C62.9455 322.879 82.3598 342.293 106.472 342.293C107.853 342.293 109.161 341.993 110.506 341.873C112.241 345.469 114.036 349.039 116.059 352.545C123.968 366.661 145.097 354.576 136.938 340.602C103.531 282.738 116.469 209.415 167.651 166.469C218.833 123.521 293.176 123.521 344.359 166.469C395.541 209.415 408.479 282.737 375.072 340.602L374.711 341.201L374.471 341.8C374.471 341.8 358.246 377.694 326.385 377.694L286.055 377.333C282.273 371.81 276.22 367.963 268.993 367.963H242.995C231.338 367.963 221.961 377.372 221.961 389.028C221.961 396.219 226.524 401.679 236.964 401.679L326.385 401.686C374.196 401.686 394.874 354.748 395.815 352.576V352.448C397.82 348.972 399.585 345.403 401.308 341.838C402.713 341.966 404.082 342.258 405.528 342.258C429.64 342.258 449.055 322.844 449.055 298.733V244.939C449.055 220.828 429.64 201.413 405.528 201.413C404.136 201.413 402.821 201.644 401.464 201.833C391.797 181.648 377.886 163.219 359.831 148.07C329.838 122.902 292.852 110.314 255.935 110.314L255.942 110.35ZM203.483 186.821C194.113 186.21 185.554 188.191 178.075 196.067C158.131 217.063 145.81 245.641 145.81 276.075C145.81 301.179 154.2 329.308 168.333 330.335C188.468 331.799 220.241 318.577 256.005 318.577C293.904 318.577 327.348 333.412 347.182 329.9C359.202 327.776 366.23 299.043 366.23 276.075C366.23 245.641 353.879 217.063 333.935 196.067C313.991 175.069 286.438 196.067 256.005 196.067C236.984 196.067 219.099 187.847 203.483 186.821ZM199.016 238.568C210.134 238.572 219.147 247.584 219.15 258.703C219.147 269.821 210.134 278.832 199.016 278.837C187.898 278.832 178.886 269.821 178.882 258.703C178.886 247.584 187.898 238.572 199.016 238.568ZM312.995 238.568C324.114 238.572 333.126 247.584 333.13 258.703C333.126 269.821 324.114 278.832 312.995 278.837C301.877 278.832 292.865 269.821 292.861 258.703C292.865 247.584 301.877 238.572 312.995 238.568Z" fill="#4D4D4D"/>
</svg>
